<mxfile host="app.diagrams.net" modified="2022-12-27T07:22:48.891Z" agent="5.0 (Macintosh; Intel Mac OS X 10_15_7) AppleWebKit/537.36 (KHTML, like Gecko) Chrome/108.0.0.0 Safari/537.36" etag="OssmE8KbUsvBRuo7-ZD3" version="20.7.4" type="github">
  <diagram id="pm73N6I4ifg4NlOD--yJ" name="第 1 页">
    <mxGraphModel dx="3000" dy="1424" grid="0" gridSize="10" guides="1" tooltips="1" connect="1" arrows="1" fold="1" page="0" pageScale="1" pageWidth="900" pageHeight="1600" math="0" shadow="0">
      <root>
        <mxCell id="0" />
        <mxCell id="1" parent="0" />
        <mxCell id="qANSEEMcXUb1CBoxWqj7-3" value="" style="rounded=1;whiteSpace=wrap;html=1;arcSize=3;fillColor=#3b3f41;" parent="1" vertex="1">
          <mxGeometry x="-892.37" y="58" width="880" height="1117" as="geometry" />
        </mxCell>
        <mxCell id="qANSEEMcXUb1CBoxWqj7-4" value="" style="rounded=1;whiteSpace=wrap;html=1;arcSize=2;strokeWidth=5;fillColor=#313335;strokeColor=#FFFFFF;" parent="1" vertex="1">
          <mxGeometry x="-883" y="170" width="861.25" height="569" as="geometry" />
        </mxCell>
        <mxCell id="yHjYWTK3FzZNucPPuGeL-5" value="" style="rounded=1;whiteSpace=wrap;html=1;arcSize=0;strokeWidth=5;fillColor=#2b2b2b;strokeColor=#FFFFFF;" parent="1" vertex="1">
          <mxGeometry x="-883" y="255" width="861.25" height="485" as="geometry" />
        </mxCell>
        <mxCell id="JUuA0cJzhno2IH6DJp2Z-2" value="" style="shape=image;verticalLabelPosition=bottom;labelBackgroundColor=default;verticalAlign=top;aspect=fixed;imageAspect=0;image=data:image/svg+xml,PHN2ZyB4bWxuczp4bGluaz0iaHR0cDovL3d3dy53My5vcmcvMTk5OS94bGluayIgeG1sbnM9Imh0dHA6Ly93d3cudzMub3JnLzIwMDAvc3ZnIiBoZWlnaHQ9IjEyOCIgd2lkdGg9IjEyOCIgdmVyc2lvbj0iMS4xIiB2aWV3Qm94PSIwIDAgMTAyNCAxMDI0IiBjbGFzcz0iaWNvbiI+PHBhdGggZmlsbD0iI2ZmZmZmZiIgZD0iTTQwNS4zMzMzMzMgNDMwLjkzMzMzM2wxMzYuNTMzMzM0LTEzNi41MzMzMzMtMjkuODY2NjY3LTI5Ljg2NjY2N0w2MDUuODY2NjY3IDE3MC42NjY2NjdsMjczLjA2NjY2NiAyNzMuMDY2NjY2LTg5LjYgODkuNi0yOS44NjY2NjYtMjkuODY2NjY2LTE0MC44IDEzNi41MzMzMzMgNTkuNzMzMzMzIDU5LjczMzMzMy04OS42IDg5LjZMMjU2IDQ2MC44bDg5LjYtODkuNiA1OS43MzMzMzMgNTkuNzMzMzMzeiBtLTg5LjYgMjkuODY2NjY3bDI3My4wNjY2NjcgMjczLjA2NjY2NyAyOS44NjY2NjctMjkuODY2NjY3LTU5LjczMzMzNC02NCAyMDAuNTMzMzM0LTIwMC41MzMzMzMgMjkuODY2NjY2IDI5Ljg2NjY2NiAyOS44NjY2NjctMjkuODY2NjY2LTIwOS4wNjY2NjctMjA5LjA2NjY2Ny0yOS44NjY2NjYgMjkuODY2NjY3IDI5Ljg2NjY2NiAyOS44NjY2NjYtMjAwLjUzMzMzMyAyMDAuNTMzMzM0LTU5LjczMzMzMy01OS43MzMzMzQtMzQuMTMzMzM0IDI5Ljg2NjY2N3ogbTU1LjQ2NjY2NyAxOTJsMjkuODY2NjY3IDI5Ljg2NjY2Ny0yMDAuNTMzMzM0IDIwMC41MzMzMzMtMjkuODY2NjY2LTM0LjEzMzMzMyAyMDAuNTMzMzMzLTE5Ni4yNjY2Njd6Ii8+PC9zdmc+;" parent="1" vertex="1">
          <mxGeometry x="-874.75" y="164" width="88" height="88" as="geometry" />
        </mxCell>
        <mxCell id="JUuA0cJzhno2IH6DJp2Z-4" value="" style="shape=image;verticalLabelPosition=bottom;labelBackgroundColor=default;verticalAlign=top;aspect=fixed;imageAspect=0;image=data:image/svg+xml,PHN2ZyB4bWxuczp4bGluaz0iaHR0cDovL3d3dy53My5vcmcvMTk5OS94bGluayIgeG1sbnM9Imh0dHA6Ly93d3cudzMub3JnLzIwMDAvc3ZnIiBoZWlnaHQ9IjEyOCIgd2lkdGg9IjEyOCIgdmVyc2lvbj0iMS4xIiB2aWV3Qm94PSIwIDAgMTAyNCAxMDI0IiBjbGFzcz0iaWNvbiI+PHBhdGggZmlsbD0iI2ZmZmZmZiIgZD0iTTQwNS4zMzMzMzMgNDMwLjkzMzMzM2wxMzYuNTMzMzM0LTEzNi41MzMzMzMtMjkuODY2NjY3LTI5Ljg2NjY2N0w2MDUuODY2NjY3IDE3MC42NjY2NjdsMjczLjA2NjY2NiAyNzMuMDY2NjY2LTg5LjYgODkuNi0yOS44NjY2NjYtMjkuODY2NjY2LTE0MC44IDEzNi41MzMzMzMgNTkuNzMzMzMzIDU5LjczMzMzMy04OS42IDg5LjZMMjU2IDQ2MC44bDg5LjYtODkuNiA1OS43MzMzMzMgNTkuNzMzMzMzeiBtLTg5LjYgMjkuODY2NjY3bDI3My4wNjY2NjcgMjczLjA2NjY2NyAyOS44NjY2NjctMjkuODY2NjY3LTU5LjczMzMzNC02NCAyMDAuNTMzMzM0LTIwMC41MzMzMzMgMjkuODY2NjY2IDI5Ljg2NjY2NiAyOS44NjY2NjctMjkuODY2NjY2LTIwOS4wNjY2NjctMjA5LjA2NjY2Ny0yOS44NjY2NjYgMjkuODY2NjY3IDI5Ljg2NjY2NiAyOS44NjY2NjYtMjAwLjUzMzMzMyAyMDAuNTMzMzM0LTU5LjczMzMzMy01OS43MzMzMzQtMzQuMTMzMzM0IDI5Ljg2NjY2N3ogbTU1LjQ2NjY2NyAxOTJsMjkuODY2NjY3IDI5Ljg2NjY2Ny0yMDAuNTMzMzM0IDIwMC41MzMzMzMtMjkuODY2NjY2LTM0LjEzMzMzMyAyMDAuNTMzMzMzLTE5Ni4yNjY2Njd6Ii8+PC9zdmc+;" parent="1" vertex="1">
          <mxGeometry x="-112.5" y="164" width="88" height="88" as="geometry" />
        </mxCell>
        <mxCell id="JUuA0cJzhno2IH6DJp2Z-5" value="" style="triangle;whiteSpace=wrap;html=1;strokeColor=#129f4b;strokeWidth=2;fontFamily=Helvetica;fontSize=43;fontColor=#FFFFFF;fillColor=#129f4b;arcSize=3;rounded=1;" parent="1" vertex="1">
          <mxGeometry x="-565.75" y="187.25" width="35.25" height="47" as="geometry" />
        </mxCell>
        <mxCell id="JUuA0cJzhno2IH6DJp2Z-6" value="" style="shape=image;verticalLabelPosition=bottom;labelBackgroundColor=default;verticalAlign=top;aspect=fixed;imageAspect=0;image=data:image/svg+xml,PHN2ZyB4bWxuczp4bGluaz0iaHR0cDovL3d3dy53My5vcmcvMTk5OS94bGluayIgeG1sbnM9Imh0dHA6Ly93d3cudzMub3JnLzIwMDAvc3ZnIiBoZWlnaHQ9IjEyOCIgd2lkdGg9IjEyOCIgdmVyc2lvbj0iMS4xIiB2aWV3Qm94PSIwIDAgMTAyNCAxMDI0IiBjbGFzcz0iaWNvbiI+PHBhdGggZmlsbD0iIzEyOWY0YiIgZD0iTTk0MCA1MTJINzkyVjQxMmM3Ni44IDAgMTM5LTYyLjIgMTM5LTEzOSAwLTQuNC0zLjYtOC04LThoLTYwYy00LjQgMC04IDMuNi04IDggMCAzNC44LTI4LjIgNjMtNjMgNjNIMjMyYy0zNC44IDAtNjMtMjguMi02My02MyAwLTQuNC0zLjYtOC04LThoLTYwYy00LjQgMC04IDMuNi04IDggMCA3Ni44IDYyLjIgMTM5IDEzOSAxMzl2MTAwSDg0Yy00LjQgMC04IDMuNi04IDh2NTZjMCA0LjQgMy42IDggOCA4aDE0OHY5NmMwIDYuNSAwLjIgMTMgMC43IDE5LjNDMTY0LjEgNzI4LjYgMTE2IDc5Ni43IDExNiA4NzZjMCA0LjQgMy42IDggOCA4aDU2YzQuNCAwIDgtMy42IDgtOCAwLTQ0LjIgMjMuOS04Mi45IDU5LjYtMTAzLjcgNiAxNy4yIDEzLjYgMzMuNiAyMi43IDQ5IDI0LjMgNDEuNSA1OSA3Ni4yIDEwMC41IDEwMC41IDI4LjkgMTYuOSA2MSAyOC44IDk1LjMgMzQuNSA0LjQgMCA4LTMuNiA4LThWNDg0YzAtNC40IDMuNi04IDgtOGg2MGM0LjQgMCA4IDMuNiA4IDh2NDY0LjJjMCA0LjQgMy42IDggOCA4IDM0LjMtNS43IDY2LjQtMTcuNiA5NS4zLTM0LjUgNDEuNS0yNC4zIDc2LjItNTkgMTAwLjUtMTAwLjUgOS4xLTE1LjUgMTYuNy0zMS45IDIyLjctNDlDODEyLjEgNzkzLjEgODM2IDgzMS44IDgzNiA4NzZjMCA0LjQgMy42IDggOCA4aDU2YzQuNCAwIDgtMy42IDgtOCAwLTc5LjMtNDguMS0xNDcuNC0xMTYuNy0xNzYuNyAwLjQtNi40IDAuNy0xMi44IDAuNy0xOS4zdi05NmgxNDhjNC40IDAgOC0zLjYgOC04di01NmMwLTQuNC0zLjYtOC04LTh6Ii8+PHBhdGggZmlsbD0iIzEyOWY0YiIgZD0iTTMwNCAyODBoNDE2YzQuNCAwIDgtMy42IDgtOCAwLTQwLTguOC03Ni43LTI1LjktMTA4LjEtMTcuMi0zMS41LTQyLjUtNTYuOC03NC03NEM1OTYuNyA3Mi44IDU2MCA2NCA1MjAgNjRoLTE2Yy00MCAwLTc2LjcgOC44LTEwOC4xIDI1LjktMzEuNSAxNy4yLTU2LjggNDIuNS03NCA3NEMzMDQuOCAxOTUuMyAyOTYgMjMyIDI5NiAyNzJjMCA0LjQgMy42IDggOCA4eiIvPjwvc3ZnPg==;" parent="1" vertex="1">
          <mxGeometry x="-489.75" y="179" width="63.5" height="63.5" as="geometry" />
        </mxCell>
        <mxCell id="JUuA0cJzhno2IH6DJp2Z-7" value="" style="whiteSpace=wrap;html=1;aspect=fixed;strokeColor=#d64a4b;strokeWidth=2;fontFamily=Helvetica;fontSize=43;fontColor=#FFFFFF;fillColor=#d64a4b;" parent="1" vertex="1">
          <mxGeometry x="-385.75" y="190.25" width="44" height="44" as="geometry" />
        </mxCell>
        <mxCell id="JUuA0cJzhno2IH6DJp2Z-8" value="" style="rounded=1;whiteSpace=wrap;html=1;arcSize=3;strokeWidth=5;fillColor=#2b2b2b;strokeColor=#FFFFFF;" parent="1" vertex="1">
          <mxGeometry x="-883" y="754" width="864" height="105" as="geometry" />
        </mxCell>
        <mxCell id="JUuA0cJzhno2IH6DJp2Z-1" value="&lt;font face=&quot;黑体&quot; color=&quot;#ffffff&quot; style=&quot;font-size: 54px;&quot;&gt;小白debug&lt;/font&gt;" style="text;html=1;strokeColor=none;fillColor=none;align=center;verticalAlign=middle;whiteSpace=wrap;rounded=0;" parent="1" vertex="1">
          <mxGeometry x="-587" y="97" width="272" height="30" as="geometry" />
        </mxCell>
      </root>
    </mxGraphModel>
  </diagram>
</mxfile>
